G04 #@! TF.FileFunction,Copper,L1,Top,Signal*
%FSLAX46Y46*%
G04 Gerber Fmt 4.6, Leading zero omitted, Abs format (unit mm)*
G04 Created by KiCad (PCBNEW 4.0.2-stable) date 10/03/2016 10:29:03 PM*
%MOMM*%
G01*
G04 APERTURE LIST*
%ADD10C,0.100000*%
%ADD11R,1.727200X1.727200*%
%ADD12O,1.727200X1.727200*%
%ADD13C,0.254000*%
G04 APERTURE END LIST*
D10*
D11*
X121920000Y-81280000D03*
D12*
X124460000Y-81280000D03*
X121920000Y-83820000D03*
X124460000Y-83820000D03*
X121920000Y-86360000D03*
X124460000Y-86360000D03*
X121920000Y-88900000D03*
X124460000Y-88900000D03*
X121920000Y-91440000D03*
X124460000Y-91440000D03*
X121920000Y-93980000D03*
X124460000Y-93980000D03*
X121920000Y-96520000D03*
X124460000Y-96520000D03*
X121920000Y-99060000D03*
X124460000Y-99060000D03*
X121920000Y-101600000D03*
X124460000Y-101600000D03*
X121920000Y-104140000D03*
X124460000Y-104140000D03*
X121920000Y-106680000D03*
X124460000Y-106680000D03*
X121920000Y-109220000D03*
X124460000Y-109220000D03*
X121920000Y-111760000D03*
X124460000Y-111760000D03*
X121920000Y-114300000D03*
X124460000Y-114300000D03*
X121920000Y-116840000D03*
X124460000Y-116840000D03*
X121920000Y-119380000D03*
X124460000Y-119380000D03*
X121920000Y-121920000D03*
X124460000Y-121920000D03*
X121920000Y-124460000D03*
X124460000Y-124460000D03*
X121920000Y-127000000D03*
X124460000Y-127000000D03*
X121920000Y-129540000D03*
X124460000Y-129540000D03*
D11*
X134620000Y-81280000D03*
D12*
X137160000Y-81280000D03*
X134620000Y-83820000D03*
X137160000Y-83820000D03*
X134620000Y-86360000D03*
X137160000Y-86360000D03*
X134620000Y-88900000D03*
X137160000Y-88900000D03*
X134620000Y-91440000D03*
X137160000Y-91440000D03*
X134620000Y-93980000D03*
X137160000Y-93980000D03*
X134620000Y-96520000D03*
X137160000Y-96520000D03*
X134620000Y-99060000D03*
X137160000Y-99060000D03*
X134620000Y-101600000D03*
X137160000Y-101600000D03*
X134620000Y-104140000D03*
X137160000Y-104140000D03*
X134620000Y-106680000D03*
X137160000Y-106680000D03*
X134620000Y-109220000D03*
X137160000Y-109220000D03*
X134620000Y-111760000D03*
X137160000Y-111760000D03*
X134620000Y-114300000D03*
X137160000Y-114300000D03*
X134620000Y-116840000D03*
X137160000Y-116840000D03*
X134620000Y-119380000D03*
X137160000Y-119380000D03*
X134620000Y-121920000D03*
X137160000Y-121920000D03*
X134620000Y-124460000D03*
X137160000Y-124460000D03*
X134620000Y-127000000D03*
X137160000Y-127000000D03*
X134620000Y-129540000D03*
X137160000Y-129540000D03*
D13*
G36*
X138938000Y-131318000D02*
X120142000Y-131318000D01*
X120142000Y-129899026D01*
X120465042Y-129899026D01*
X120637312Y-130314947D01*
X121031510Y-130746821D01*
X121560973Y-130994968D01*
X121793000Y-130874469D01*
X121793000Y-129667000D01*
X120586183Y-129667000D01*
X120465042Y-129899026D01*
X120142000Y-129899026D01*
X120142000Y-83820000D01*
X120392041Y-83820000D01*
X120506115Y-84393489D01*
X120830971Y-84879670D01*
X121145752Y-85090000D01*
X120830971Y-85300330D01*
X120506115Y-85786511D01*
X120392041Y-86360000D01*
X120506115Y-86933489D01*
X120830971Y-87419670D01*
X121145752Y-87630000D01*
X120830971Y-87840330D01*
X120506115Y-88326511D01*
X120392041Y-88900000D01*
X120506115Y-89473489D01*
X120830971Y-89959670D01*
X121154228Y-90175664D01*
X121031510Y-90233179D01*
X120637312Y-90665053D01*
X120465042Y-91080974D01*
X120586183Y-91313000D01*
X121793000Y-91313000D01*
X121793000Y-91293000D01*
X122047000Y-91293000D01*
X122047000Y-91313000D01*
X122067000Y-91313000D01*
X122067000Y-91567000D01*
X122047000Y-91567000D01*
X122047000Y-91587000D01*
X121793000Y-91587000D01*
X121793000Y-91567000D01*
X120586183Y-91567000D01*
X120465042Y-91799026D01*
X120637312Y-92214947D01*
X121031510Y-92646821D01*
X121154228Y-92704336D01*
X120830971Y-92920330D01*
X120506115Y-93406511D01*
X120392041Y-93980000D01*
X120506115Y-94553489D01*
X120830971Y-95039670D01*
X121145752Y-95250000D01*
X120830971Y-95460330D01*
X120506115Y-95946511D01*
X120392041Y-96520000D01*
X120506115Y-97093489D01*
X120830971Y-97579670D01*
X121145752Y-97790000D01*
X120830971Y-98000330D01*
X120506115Y-98486511D01*
X120392041Y-99060000D01*
X120506115Y-99633489D01*
X120830971Y-100119670D01*
X121145752Y-100330000D01*
X120830971Y-100540330D01*
X120506115Y-101026511D01*
X120392041Y-101600000D01*
X120506115Y-102173489D01*
X120830971Y-102659670D01*
X121145752Y-102870000D01*
X120830971Y-103080330D01*
X120506115Y-103566511D01*
X120392041Y-104140000D01*
X120506115Y-104713489D01*
X120830971Y-105199670D01*
X121145752Y-105410000D01*
X120830971Y-105620330D01*
X120506115Y-106106511D01*
X120392041Y-106680000D01*
X120506115Y-107253489D01*
X120830971Y-107739670D01*
X121145752Y-107950000D01*
X120830971Y-108160330D01*
X120506115Y-108646511D01*
X120392041Y-109220000D01*
X120506115Y-109793489D01*
X120830971Y-110279670D01*
X121154228Y-110495664D01*
X121031510Y-110553179D01*
X120637312Y-110985053D01*
X120465042Y-111400974D01*
X120586183Y-111633000D01*
X121793000Y-111633000D01*
X121793000Y-111613000D01*
X122047000Y-111613000D01*
X122047000Y-111633000D01*
X122067000Y-111633000D01*
X122067000Y-111887000D01*
X122047000Y-111887000D01*
X122047000Y-111907000D01*
X121793000Y-111907000D01*
X121793000Y-111887000D01*
X120586183Y-111887000D01*
X120465042Y-112119026D01*
X120637312Y-112534947D01*
X121031510Y-112966821D01*
X121154228Y-113024336D01*
X120830971Y-113240330D01*
X120506115Y-113726511D01*
X120392041Y-114300000D01*
X120506115Y-114873489D01*
X120830971Y-115359670D01*
X121145752Y-115570000D01*
X120830971Y-115780330D01*
X120506115Y-116266511D01*
X120392041Y-116840000D01*
X120506115Y-117413489D01*
X120830971Y-117899670D01*
X121145752Y-118110000D01*
X120830971Y-118320330D01*
X120506115Y-118806511D01*
X120392041Y-119380000D01*
X120506115Y-119953489D01*
X120830971Y-120439670D01*
X121145752Y-120650000D01*
X120830971Y-120860330D01*
X120506115Y-121346511D01*
X120392041Y-121920000D01*
X120506115Y-122493489D01*
X120830971Y-122979670D01*
X121145752Y-123190000D01*
X120830971Y-123400330D01*
X120506115Y-123886511D01*
X120392041Y-124460000D01*
X120506115Y-125033489D01*
X120830971Y-125519670D01*
X121145752Y-125730000D01*
X120830971Y-125940330D01*
X120506115Y-126426511D01*
X120392041Y-127000000D01*
X120506115Y-127573489D01*
X120830971Y-128059670D01*
X121154228Y-128275664D01*
X121031510Y-128333179D01*
X120637312Y-128765053D01*
X120465042Y-129180974D01*
X120586183Y-129413000D01*
X121793000Y-129413000D01*
X121793000Y-129393000D01*
X122047000Y-129393000D01*
X122047000Y-129413000D01*
X122067000Y-129413000D01*
X122067000Y-129667000D01*
X122047000Y-129667000D01*
X122047000Y-130874469D01*
X122279027Y-130994968D01*
X122808490Y-130746821D01*
X123190008Y-130328839D01*
X123370971Y-130599670D01*
X123857152Y-130924526D01*
X124430641Y-131038600D01*
X124489359Y-131038600D01*
X125062848Y-130924526D01*
X125549029Y-130599670D01*
X125873885Y-130113489D01*
X125916544Y-129899026D01*
X133165042Y-129899026D01*
X133337312Y-130314947D01*
X133731510Y-130746821D01*
X134260973Y-130994968D01*
X134493000Y-130874469D01*
X134493000Y-129667000D01*
X133286183Y-129667000D01*
X133165042Y-129899026D01*
X125916544Y-129899026D01*
X125987959Y-129540000D01*
X125873885Y-128966511D01*
X125549029Y-128480330D01*
X125234248Y-128270000D01*
X125549029Y-128059670D01*
X125873885Y-127573489D01*
X125987959Y-127000000D01*
X125873885Y-126426511D01*
X125549029Y-125940330D01*
X125234248Y-125730000D01*
X125549029Y-125519670D01*
X125873885Y-125033489D01*
X125987959Y-124460000D01*
X125873885Y-123886511D01*
X125549029Y-123400330D01*
X125225772Y-123184336D01*
X125348490Y-123126821D01*
X125742688Y-122694947D01*
X125914958Y-122279026D01*
X125793817Y-122047000D01*
X124587000Y-122047000D01*
X124587000Y-122067000D01*
X124333000Y-122067000D01*
X124333000Y-122047000D01*
X124313000Y-122047000D01*
X124313000Y-121793000D01*
X124333000Y-121793000D01*
X124333000Y-121773000D01*
X124587000Y-121773000D01*
X124587000Y-121793000D01*
X125793817Y-121793000D01*
X125914958Y-121560974D01*
X125742688Y-121145053D01*
X125348490Y-120713179D01*
X125225772Y-120655664D01*
X125549029Y-120439670D01*
X125873885Y-119953489D01*
X125987959Y-119380000D01*
X125873885Y-118806511D01*
X125549029Y-118320330D01*
X125225772Y-118104336D01*
X125348490Y-118046821D01*
X125742688Y-117614947D01*
X125914958Y-117199026D01*
X125793817Y-116967000D01*
X124587000Y-116967000D01*
X124587000Y-116987000D01*
X124333000Y-116987000D01*
X124333000Y-116967000D01*
X124313000Y-116967000D01*
X124313000Y-116713000D01*
X124333000Y-116713000D01*
X124333000Y-116693000D01*
X124587000Y-116693000D01*
X124587000Y-116713000D01*
X125793817Y-116713000D01*
X125914958Y-116480974D01*
X125742688Y-116065053D01*
X125348490Y-115633179D01*
X125225772Y-115575664D01*
X125549029Y-115359670D01*
X125873885Y-114873489D01*
X125987959Y-114300000D01*
X125873885Y-113726511D01*
X125549029Y-113240330D01*
X125234248Y-113030000D01*
X125549029Y-112819670D01*
X125873885Y-112333489D01*
X125987959Y-111760000D01*
X125873885Y-111186511D01*
X125549029Y-110700330D01*
X125234248Y-110490000D01*
X125549029Y-110279670D01*
X125873885Y-109793489D01*
X125987959Y-109220000D01*
X125873885Y-108646511D01*
X125549029Y-108160330D01*
X125234248Y-107950000D01*
X125549029Y-107739670D01*
X125873885Y-107253489D01*
X125987959Y-106680000D01*
X125873885Y-106106511D01*
X125549029Y-105620330D01*
X125225772Y-105404336D01*
X125348490Y-105346821D01*
X125742688Y-104914947D01*
X125914958Y-104499026D01*
X125793817Y-104267000D01*
X124587000Y-104267000D01*
X124587000Y-104287000D01*
X124333000Y-104287000D01*
X124333000Y-104267000D01*
X124313000Y-104267000D01*
X124313000Y-104013000D01*
X124333000Y-104013000D01*
X124333000Y-103993000D01*
X124587000Y-103993000D01*
X124587000Y-104013000D01*
X125793817Y-104013000D01*
X125914958Y-103780974D01*
X125742688Y-103365053D01*
X125348490Y-102933179D01*
X125225772Y-102875664D01*
X125549029Y-102659670D01*
X125873885Y-102173489D01*
X125987959Y-101600000D01*
X125873885Y-101026511D01*
X125549029Y-100540330D01*
X125234248Y-100330000D01*
X125549029Y-100119670D01*
X125873885Y-99633489D01*
X125987959Y-99060000D01*
X125873885Y-98486511D01*
X125549029Y-98000330D01*
X125234248Y-97790000D01*
X125549029Y-97579670D01*
X125873885Y-97093489D01*
X125987959Y-96520000D01*
X125873885Y-95946511D01*
X125549029Y-95460330D01*
X125234248Y-95250000D01*
X125549029Y-95039670D01*
X125873885Y-94553489D01*
X125987959Y-93980000D01*
X125873885Y-93406511D01*
X125549029Y-92920330D01*
X125234248Y-92710000D01*
X125549029Y-92499670D01*
X125873885Y-92013489D01*
X125987959Y-91440000D01*
X125873885Y-90866511D01*
X125549029Y-90380330D01*
X125234248Y-90170000D01*
X125549029Y-89959670D01*
X125873885Y-89473489D01*
X125987959Y-88900000D01*
X125873885Y-88326511D01*
X125549029Y-87840330D01*
X125225772Y-87624336D01*
X125348490Y-87566821D01*
X125742688Y-87134947D01*
X125914958Y-86719026D01*
X125793817Y-86487000D01*
X124587000Y-86487000D01*
X124587000Y-86507000D01*
X124333000Y-86507000D01*
X124333000Y-86487000D01*
X124313000Y-86487000D01*
X124313000Y-86233000D01*
X124333000Y-86233000D01*
X124333000Y-86213000D01*
X124587000Y-86213000D01*
X124587000Y-86233000D01*
X125793817Y-86233000D01*
X125914958Y-86000974D01*
X125742688Y-85585053D01*
X125348490Y-85153179D01*
X125225772Y-85095664D01*
X125549029Y-84879670D01*
X125873885Y-84393489D01*
X125987959Y-83820000D01*
X133092041Y-83820000D01*
X133206115Y-84393489D01*
X133530971Y-84879670D01*
X133845752Y-85090000D01*
X133530971Y-85300330D01*
X133206115Y-85786511D01*
X133092041Y-86360000D01*
X133206115Y-86933489D01*
X133530971Y-87419670D01*
X133845752Y-87630000D01*
X133530971Y-87840330D01*
X133206115Y-88326511D01*
X133092041Y-88900000D01*
X133206115Y-89473489D01*
X133530971Y-89959670D01*
X133854228Y-90175664D01*
X133731510Y-90233179D01*
X133337312Y-90665053D01*
X133165042Y-91080974D01*
X133286183Y-91313000D01*
X134493000Y-91313000D01*
X134493000Y-91293000D01*
X134747000Y-91293000D01*
X134747000Y-91313000D01*
X134767000Y-91313000D01*
X134767000Y-91567000D01*
X134747000Y-91567000D01*
X134747000Y-91587000D01*
X134493000Y-91587000D01*
X134493000Y-91567000D01*
X133286183Y-91567000D01*
X133165042Y-91799026D01*
X133337312Y-92214947D01*
X133731510Y-92646821D01*
X133854228Y-92704336D01*
X133530971Y-92920330D01*
X133206115Y-93406511D01*
X133092041Y-93980000D01*
X133206115Y-94553489D01*
X133530971Y-95039670D01*
X133845752Y-95250000D01*
X133530971Y-95460330D01*
X133206115Y-95946511D01*
X133092041Y-96520000D01*
X133206115Y-97093489D01*
X133530971Y-97579670D01*
X133845752Y-97790000D01*
X133530971Y-98000330D01*
X133206115Y-98486511D01*
X133092041Y-99060000D01*
X133206115Y-99633489D01*
X133530971Y-100119670D01*
X133845752Y-100330000D01*
X133530971Y-100540330D01*
X133206115Y-101026511D01*
X133092041Y-101600000D01*
X133206115Y-102173489D01*
X133530971Y-102659670D01*
X133845752Y-102870000D01*
X133530971Y-103080330D01*
X133206115Y-103566511D01*
X133092041Y-104140000D01*
X133206115Y-104713489D01*
X133530971Y-105199670D01*
X133845752Y-105410000D01*
X133530971Y-105620330D01*
X133206115Y-106106511D01*
X133092041Y-106680000D01*
X133206115Y-107253489D01*
X133530971Y-107739670D01*
X133845752Y-107950000D01*
X133530971Y-108160330D01*
X133206115Y-108646511D01*
X133092041Y-109220000D01*
X133206115Y-109793489D01*
X133530971Y-110279670D01*
X133854228Y-110495664D01*
X133731510Y-110553179D01*
X133337312Y-110985053D01*
X133165042Y-111400974D01*
X133286183Y-111633000D01*
X134493000Y-111633000D01*
X134493000Y-111613000D01*
X134747000Y-111613000D01*
X134747000Y-111633000D01*
X134767000Y-111633000D01*
X134767000Y-111887000D01*
X134747000Y-111887000D01*
X134747000Y-111907000D01*
X134493000Y-111907000D01*
X134493000Y-111887000D01*
X133286183Y-111887000D01*
X133165042Y-112119026D01*
X133337312Y-112534947D01*
X133731510Y-112966821D01*
X133854228Y-113024336D01*
X133530971Y-113240330D01*
X133206115Y-113726511D01*
X133092041Y-114300000D01*
X133206115Y-114873489D01*
X133530971Y-115359670D01*
X133845752Y-115570000D01*
X133530971Y-115780330D01*
X133206115Y-116266511D01*
X133092041Y-116840000D01*
X133206115Y-117413489D01*
X133530971Y-117899670D01*
X133845752Y-118110000D01*
X133530971Y-118320330D01*
X133206115Y-118806511D01*
X133092041Y-119380000D01*
X133206115Y-119953489D01*
X133530971Y-120439670D01*
X133845752Y-120650000D01*
X133530971Y-120860330D01*
X133206115Y-121346511D01*
X133092041Y-121920000D01*
X133206115Y-122493489D01*
X133530971Y-122979670D01*
X133845752Y-123190000D01*
X133530971Y-123400330D01*
X133206115Y-123886511D01*
X133092041Y-124460000D01*
X133206115Y-125033489D01*
X133530971Y-125519670D01*
X133845752Y-125730000D01*
X133530971Y-125940330D01*
X133206115Y-126426511D01*
X133092041Y-127000000D01*
X133206115Y-127573489D01*
X133530971Y-128059670D01*
X133854228Y-128275664D01*
X133731510Y-128333179D01*
X133337312Y-128765053D01*
X133165042Y-129180974D01*
X133286183Y-129413000D01*
X134493000Y-129413000D01*
X134493000Y-129393000D01*
X134747000Y-129393000D01*
X134747000Y-129413000D01*
X134767000Y-129413000D01*
X134767000Y-129667000D01*
X134747000Y-129667000D01*
X134747000Y-130874469D01*
X134979027Y-130994968D01*
X135508490Y-130746821D01*
X135890008Y-130328839D01*
X136070971Y-130599670D01*
X136557152Y-130924526D01*
X137130641Y-131038600D01*
X137189359Y-131038600D01*
X137762848Y-130924526D01*
X138249029Y-130599670D01*
X138573885Y-130113489D01*
X138687959Y-129540000D01*
X138573885Y-128966511D01*
X138249029Y-128480330D01*
X137934248Y-128270000D01*
X138249029Y-128059670D01*
X138573885Y-127573489D01*
X138687959Y-127000000D01*
X138573885Y-126426511D01*
X138249029Y-125940330D01*
X137934248Y-125730000D01*
X138249029Y-125519670D01*
X138573885Y-125033489D01*
X138687959Y-124460000D01*
X138573885Y-123886511D01*
X138249029Y-123400330D01*
X137925772Y-123184336D01*
X138048490Y-123126821D01*
X138442688Y-122694947D01*
X138614958Y-122279026D01*
X138493817Y-122047000D01*
X137287000Y-122047000D01*
X137287000Y-122067000D01*
X137033000Y-122067000D01*
X137033000Y-122047000D01*
X137013000Y-122047000D01*
X137013000Y-121793000D01*
X137033000Y-121793000D01*
X137033000Y-121773000D01*
X137287000Y-121773000D01*
X137287000Y-121793000D01*
X138493817Y-121793000D01*
X138614958Y-121560974D01*
X138442688Y-121145053D01*
X138048490Y-120713179D01*
X137925772Y-120655664D01*
X138249029Y-120439670D01*
X138573885Y-119953489D01*
X138687959Y-119380000D01*
X138573885Y-118806511D01*
X138249029Y-118320330D01*
X137925772Y-118104336D01*
X138048490Y-118046821D01*
X138442688Y-117614947D01*
X138614958Y-117199026D01*
X138493817Y-116967000D01*
X137287000Y-116967000D01*
X137287000Y-116987000D01*
X137033000Y-116987000D01*
X137033000Y-116967000D01*
X137013000Y-116967000D01*
X137013000Y-116713000D01*
X137033000Y-116713000D01*
X137033000Y-116693000D01*
X137287000Y-116693000D01*
X137287000Y-116713000D01*
X138493817Y-116713000D01*
X138614958Y-116480974D01*
X138442688Y-116065053D01*
X138048490Y-115633179D01*
X137925772Y-115575664D01*
X138249029Y-115359670D01*
X138573885Y-114873489D01*
X138687959Y-114300000D01*
X138573885Y-113726511D01*
X138249029Y-113240330D01*
X137934248Y-113030000D01*
X138249029Y-112819670D01*
X138573885Y-112333489D01*
X138687959Y-111760000D01*
X138573885Y-111186511D01*
X138249029Y-110700330D01*
X137934248Y-110490000D01*
X138249029Y-110279670D01*
X138573885Y-109793489D01*
X138687959Y-109220000D01*
X138573885Y-108646511D01*
X138249029Y-108160330D01*
X137934248Y-107950000D01*
X138249029Y-107739670D01*
X138573885Y-107253489D01*
X138687959Y-106680000D01*
X138573885Y-106106511D01*
X138249029Y-105620330D01*
X137925772Y-105404336D01*
X138048490Y-105346821D01*
X138442688Y-104914947D01*
X138614958Y-104499026D01*
X138493817Y-104267000D01*
X137287000Y-104267000D01*
X137287000Y-104287000D01*
X137033000Y-104287000D01*
X137033000Y-104267000D01*
X137013000Y-104267000D01*
X137013000Y-104013000D01*
X137033000Y-104013000D01*
X137033000Y-103993000D01*
X137287000Y-103993000D01*
X137287000Y-104013000D01*
X138493817Y-104013000D01*
X138614958Y-103780974D01*
X138442688Y-103365053D01*
X138048490Y-102933179D01*
X137925772Y-102875664D01*
X138249029Y-102659670D01*
X138573885Y-102173489D01*
X138687959Y-101600000D01*
X138573885Y-101026511D01*
X138249029Y-100540330D01*
X137934248Y-100330000D01*
X138249029Y-100119670D01*
X138573885Y-99633489D01*
X138687959Y-99060000D01*
X138573885Y-98486511D01*
X138249029Y-98000330D01*
X137934248Y-97790000D01*
X138249029Y-97579670D01*
X138573885Y-97093489D01*
X138687959Y-96520000D01*
X138573885Y-95946511D01*
X138249029Y-95460330D01*
X137934248Y-95250000D01*
X138249029Y-95039670D01*
X138573885Y-94553489D01*
X138687959Y-93980000D01*
X138573885Y-93406511D01*
X138249029Y-92920330D01*
X137934248Y-92710000D01*
X138249029Y-92499670D01*
X138573885Y-92013489D01*
X138687959Y-91440000D01*
X138573885Y-90866511D01*
X138249029Y-90380330D01*
X137934248Y-90170000D01*
X138249029Y-89959670D01*
X138573885Y-89473489D01*
X138687959Y-88900000D01*
X138573885Y-88326511D01*
X138249029Y-87840330D01*
X137925772Y-87624336D01*
X138048490Y-87566821D01*
X138442688Y-87134947D01*
X138614958Y-86719026D01*
X138493817Y-86487000D01*
X137287000Y-86487000D01*
X137287000Y-86507000D01*
X137033000Y-86507000D01*
X137033000Y-86487000D01*
X137013000Y-86487000D01*
X137013000Y-86233000D01*
X137033000Y-86233000D01*
X137033000Y-86213000D01*
X137287000Y-86213000D01*
X137287000Y-86233000D01*
X138493817Y-86233000D01*
X138614958Y-86000974D01*
X138442688Y-85585053D01*
X138048490Y-85153179D01*
X137925772Y-85095664D01*
X138249029Y-84879670D01*
X138573885Y-84393489D01*
X138687959Y-83820000D01*
X138573885Y-83246511D01*
X138249029Y-82760330D01*
X137934248Y-82550000D01*
X138249029Y-82339670D01*
X138573885Y-81853489D01*
X138687959Y-81280000D01*
X138573885Y-80706511D01*
X138249029Y-80220330D01*
X137762848Y-79895474D01*
X137189359Y-79781400D01*
X137130641Y-79781400D01*
X136557152Y-79895474D01*
X136091558Y-80206574D01*
X136086762Y-80181083D01*
X135947690Y-79964959D01*
X135735490Y-79819969D01*
X135483600Y-79768960D01*
X133756400Y-79768960D01*
X133521083Y-79813238D01*
X133304959Y-79952310D01*
X133159969Y-80164510D01*
X133108960Y-80416400D01*
X133108960Y-82143600D01*
X133153238Y-82378917D01*
X133292310Y-82595041D01*
X133504510Y-82740031D01*
X133548131Y-82748864D01*
X133530971Y-82760330D01*
X133206115Y-83246511D01*
X133092041Y-83820000D01*
X125987959Y-83820000D01*
X125873885Y-83246511D01*
X125549029Y-82760330D01*
X125234248Y-82550000D01*
X125549029Y-82339670D01*
X125873885Y-81853489D01*
X125987959Y-81280000D01*
X125873885Y-80706511D01*
X125549029Y-80220330D01*
X125062848Y-79895474D01*
X124489359Y-79781400D01*
X124430641Y-79781400D01*
X123857152Y-79895474D01*
X123391558Y-80206574D01*
X123386762Y-80181083D01*
X123247690Y-79964959D01*
X123035490Y-79819969D01*
X122783600Y-79768960D01*
X121056400Y-79768960D01*
X120821083Y-79813238D01*
X120604959Y-79952310D01*
X120459969Y-80164510D01*
X120408960Y-80416400D01*
X120408960Y-82143600D01*
X120453238Y-82378917D01*
X120592310Y-82595041D01*
X120804510Y-82740031D01*
X120848131Y-82748864D01*
X120830971Y-82760330D01*
X120506115Y-83246511D01*
X120392041Y-83820000D01*
X120142000Y-83820000D01*
X120142000Y-79502000D01*
X138938000Y-79502000D01*
X138938000Y-131318000D01*
X138938000Y-131318000D01*
G37*
X138938000Y-131318000D02*
X120142000Y-131318000D01*
X120142000Y-129899026D01*
X120465042Y-129899026D01*
X120637312Y-130314947D01*
X121031510Y-130746821D01*
X121560973Y-130994968D01*
X121793000Y-130874469D01*
X121793000Y-129667000D01*
X120586183Y-129667000D01*
X120465042Y-129899026D01*
X120142000Y-129899026D01*
X120142000Y-83820000D01*
X120392041Y-83820000D01*
X120506115Y-84393489D01*
X120830971Y-84879670D01*
X121145752Y-85090000D01*
X120830971Y-85300330D01*
X120506115Y-85786511D01*
X120392041Y-86360000D01*
X120506115Y-86933489D01*
X120830971Y-87419670D01*
X121145752Y-87630000D01*
X120830971Y-87840330D01*
X120506115Y-88326511D01*
X120392041Y-88900000D01*
X120506115Y-89473489D01*
X120830971Y-89959670D01*
X121154228Y-90175664D01*
X121031510Y-90233179D01*
X120637312Y-90665053D01*
X120465042Y-91080974D01*
X120586183Y-91313000D01*
X121793000Y-91313000D01*
X121793000Y-91293000D01*
X122047000Y-91293000D01*
X122047000Y-91313000D01*
X122067000Y-91313000D01*
X122067000Y-91567000D01*
X122047000Y-91567000D01*
X122047000Y-91587000D01*
X121793000Y-91587000D01*
X121793000Y-91567000D01*
X120586183Y-91567000D01*
X120465042Y-91799026D01*
X120637312Y-92214947D01*
X121031510Y-92646821D01*
X121154228Y-92704336D01*
X120830971Y-92920330D01*
X120506115Y-93406511D01*
X120392041Y-93980000D01*
X120506115Y-94553489D01*
X120830971Y-95039670D01*
X121145752Y-95250000D01*
X120830971Y-95460330D01*
X120506115Y-95946511D01*
X120392041Y-96520000D01*
X120506115Y-97093489D01*
X120830971Y-97579670D01*
X121145752Y-97790000D01*
X120830971Y-98000330D01*
X120506115Y-98486511D01*
X120392041Y-99060000D01*
X120506115Y-99633489D01*
X120830971Y-100119670D01*
X121145752Y-100330000D01*
X120830971Y-100540330D01*
X120506115Y-101026511D01*
X120392041Y-101600000D01*
X120506115Y-102173489D01*
X120830971Y-102659670D01*
X121145752Y-102870000D01*
X120830971Y-103080330D01*
X120506115Y-103566511D01*
X120392041Y-104140000D01*
X120506115Y-104713489D01*
X120830971Y-105199670D01*
X121145752Y-105410000D01*
X120830971Y-105620330D01*
X120506115Y-106106511D01*
X120392041Y-106680000D01*
X120506115Y-107253489D01*
X120830971Y-107739670D01*
X121145752Y-107950000D01*
X120830971Y-108160330D01*
X120506115Y-108646511D01*
X120392041Y-109220000D01*
X120506115Y-109793489D01*
X120830971Y-110279670D01*
X121154228Y-110495664D01*
X121031510Y-110553179D01*
X120637312Y-110985053D01*
X120465042Y-111400974D01*
X120586183Y-111633000D01*
X121793000Y-111633000D01*
X121793000Y-111613000D01*
X122047000Y-111613000D01*
X122047000Y-111633000D01*
X122067000Y-111633000D01*
X122067000Y-111887000D01*
X122047000Y-111887000D01*
X122047000Y-111907000D01*
X121793000Y-111907000D01*
X121793000Y-111887000D01*
X120586183Y-111887000D01*
X120465042Y-112119026D01*
X120637312Y-112534947D01*
X121031510Y-112966821D01*
X121154228Y-113024336D01*
X120830971Y-113240330D01*
X120506115Y-113726511D01*
X120392041Y-114300000D01*
X120506115Y-114873489D01*
X120830971Y-115359670D01*
X121145752Y-115570000D01*
X120830971Y-115780330D01*
X120506115Y-116266511D01*
X120392041Y-116840000D01*
X120506115Y-117413489D01*
X120830971Y-117899670D01*
X121145752Y-118110000D01*
X120830971Y-118320330D01*
X120506115Y-118806511D01*
X120392041Y-119380000D01*
X120506115Y-119953489D01*
X120830971Y-120439670D01*
X121145752Y-120650000D01*
X120830971Y-120860330D01*
X120506115Y-121346511D01*
X120392041Y-121920000D01*
X120506115Y-122493489D01*
X120830971Y-122979670D01*
X121145752Y-123190000D01*
X120830971Y-123400330D01*
X120506115Y-123886511D01*
X120392041Y-124460000D01*
X120506115Y-125033489D01*
X120830971Y-125519670D01*
X121145752Y-125730000D01*
X120830971Y-125940330D01*
X120506115Y-126426511D01*
X120392041Y-127000000D01*
X120506115Y-127573489D01*
X120830971Y-128059670D01*
X121154228Y-128275664D01*
X121031510Y-128333179D01*
X120637312Y-128765053D01*
X120465042Y-129180974D01*
X120586183Y-129413000D01*
X121793000Y-129413000D01*
X121793000Y-129393000D01*
X122047000Y-129393000D01*
X122047000Y-129413000D01*
X122067000Y-129413000D01*
X122067000Y-129667000D01*
X122047000Y-129667000D01*
X122047000Y-130874469D01*
X122279027Y-130994968D01*
X122808490Y-130746821D01*
X123190008Y-130328839D01*
X123370971Y-130599670D01*
X123857152Y-130924526D01*
X124430641Y-131038600D01*
X124489359Y-131038600D01*
X125062848Y-130924526D01*
X125549029Y-130599670D01*
X125873885Y-130113489D01*
X125916544Y-129899026D01*
X133165042Y-129899026D01*
X133337312Y-130314947D01*
X133731510Y-130746821D01*
X134260973Y-130994968D01*
X134493000Y-130874469D01*
X134493000Y-129667000D01*
X133286183Y-129667000D01*
X133165042Y-129899026D01*
X125916544Y-129899026D01*
X125987959Y-129540000D01*
X125873885Y-128966511D01*
X125549029Y-128480330D01*
X125234248Y-128270000D01*
X125549029Y-128059670D01*
X125873885Y-127573489D01*
X125987959Y-127000000D01*
X125873885Y-126426511D01*
X125549029Y-125940330D01*
X125234248Y-125730000D01*
X125549029Y-125519670D01*
X125873885Y-125033489D01*
X125987959Y-124460000D01*
X125873885Y-123886511D01*
X125549029Y-123400330D01*
X125225772Y-123184336D01*
X125348490Y-123126821D01*
X125742688Y-122694947D01*
X125914958Y-122279026D01*
X125793817Y-122047000D01*
X124587000Y-122047000D01*
X124587000Y-122067000D01*
X124333000Y-122067000D01*
X124333000Y-122047000D01*
X124313000Y-122047000D01*
X124313000Y-121793000D01*
X124333000Y-121793000D01*
X124333000Y-121773000D01*
X124587000Y-121773000D01*
X124587000Y-121793000D01*
X125793817Y-121793000D01*
X125914958Y-121560974D01*
X125742688Y-121145053D01*
X125348490Y-120713179D01*
X125225772Y-120655664D01*
X125549029Y-120439670D01*
X125873885Y-119953489D01*
X125987959Y-119380000D01*
X125873885Y-118806511D01*
X125549029Y-118320330D01*
X125225772Y-118104336D01*
X125348490Y-118046821D01*
X125742688Y-117614947D01*
X125914958Y-117199026D01*
X125793817Y-116967000D01*
X124587000Y-116967000D01*
X124587000Y-116987000D01*
X124333000Y-116987000D01*
X124333000Y-116967000D01*
X124313000Y-116967000D01*
X124313000Y-116713000D01*
X124333000Y-116713000D01*
X124333000Y-116693000D01*
X124587000Y-116693000D01*
X124587000Y-116713000D01*
X125793817Y-116713000D01*
X125914958Y-116480974D01*
X125742688Y-116065053D01*
X125348490Y-115633179D01*
X125225772Y-115575664D01*
X125549029Y-115359670D01*
X125873885Y-114873489D01*
X125987959Y-114300000D01*
X125873885Y-113726511D01*
X125549029Y-113240330D01*
X125234248Y-113030000D01*
X125549029Y-112819670D01*
X125873885Y-112333489D01*
X125987959Y-111760000D01*
X125873885Y-111186511D01*
X125549029Y-110700330D01*
X125234248Y-110490000D01*
X125549029Y-110279670D01*
X125873885Y-109793489D01*
X125987959Y-109220000D01*
X125873885Y-108646511D01*
X125549029Y-108160330D01*
X125234248Y-107950000D01*
X125549029Y-107739670D01*
X125873885Y-107253489D01*
X125987959Y-106680000D01*
X125873885Y-106106511D01*
X125549029Y-105620330D01*
X125225772Y-105404336D01*
X125348490Y-105346821D01*
X125742688Y-104914947D01*
X125914958Y-104499026D01*
X125793817Y-104267000D01*
X124587000Y-104267000D01*
X124587000Y-104287000D01*
X124333000Y-104287000D01*
X124333000Y-104267000D01*
X124313000Y-104267000D01*
X124313000Y-104013000D01*
X124333000Y-104013000D01*
X124333000Y-103993000D01*
X124587000Y-103993000D01*
X124587000Y-104013000D01*
X125793817Y-104013000D01*
X125914958Y-103780974D01*
X125742688Y-103365053D01*
X125348490Y-102933179D01*
X125225772Y-102875664D01*
X125549029Y-102659670D01*
X125873885Y-102173489D01*
X125987959Y-101600000D01*
X125873885Y-101026511D01*
X125549029Y-100540330D01*
X125234248Y-100330000D01*
X125549029Y-100119670D01*
X125873885Y-99633489D01*
X125987959Y-99060000D01*
X125873885Y-98486511D01*
X125549029Y-98000330D01*
X125234248Y-97790000D01*
X125549029Y-97579670D01*
X125873885Y-97093489D01*
X125987959Y-96520000D01*
X125873885Y-95946511D01*
X125549029Y-95460330D01*
X125234248Y-95250000D01*
X125549029Y-95039670D01*
X125873885Y-94553489D01*
X125987959Y-93980000D01*
X125873885Y-93406511D01*
X125549029Y-92920330D01*
X125234248Y-92710000D01*
X125549029Y-92499670D01*
X125873885Y-92013489D01*
X125987959Y-91440000D01*
X125873885Y-90866511D01*
X125549029Y-90380330D01*
X125234248Y-90170000D01*
X125549029Y-89959670D01*
X125873885Y-89473489D01*
X125987959Y-88900000D01*
X125873885Y-88326511D01*
X125549029Y-87840330D01*
X125225772Y-87624336D01*
X125348490Y-87566821D01*
X125742688Y-87134947D01*
X125914958Y-86719026D01*
X125793817Y-86487000D01*
X124587000Y-86487000D01*
X124587000Y-86507000D01*
X124333000Y-86507000D01*
X124333000Y-86487000D01*
X124313000Y-86487000D01*
X124313000Y-86233000D01*
X124333000Y-86233000D01*
X124333000Y-86213000D01*
X124587000Y-86213000D01*
X124587000Y-86233000D01*
X125793817Y-86233000D01*
X125914958Y-86000974D01*
X125742688Y-85585053D01*
X125348490Y-85153179D01*
X125225772Y-85095664D01*
X125549029Y-84879670D01*
X125873885Y-84393489D01*
X125987959Y-83820000D01*
X133092041Y-83820000D01*
X133206115Y-84393489D01*
X133530971Y-84879670D01*
X133845752Y-85090000D01*
X133530971Y-85300330D01*
X133206115Y-85786511D01*
X133092041Y-86360000D01*
X133206115Y-86933489D01*
X133530971Y-87419670D01*
X133845752Y-87630000D01*
X133530971Y-87840330D01*
X133206115Y-88326511D01*
X133092041Y-88900000D01*
X133206115Y-89473489D01*
X133530971Y-89959670D01*
X133854228Y-90175664D01*
X133731510Y-90233179D01*
X133337312Y-90665053D01*
X133165042Y-91080974D01*
X133286183Y-91313000D01*
X134493000Y-91313000D01*
X134493000Y-91293000D01*
X134747000Y-91293000D01*
X134747000Y-91313000D01*
X134767000Y-91313000D01*
X134767000Y-91567000D01*
X134747000Y-91567000D01*
X134747000Y-91587000D01*
X134493000Y-91587000D01*
X134493000Y-91567000D01*
X133286183Y-91567000D01*
X133165042Y-91799026D01*
X133337312Y-92214947D01*
X133731510Y-92646821D01*
X133854228Y-92704336D01*
X133530971Y-92920330D01*
X133206115Y-93406511D01*
X133092041Y-93980000D01*
X133206115Y-94553489D01*
X133530971Y-95039670D01*
X133845752Y-95250000D01*
X133530971Y-95460330D01*
X133206115Y-95946511D01*
X133092041Y-96520000D01*
X133206115Y-97093489D01*
X133530971Y-97579670D01*
X133845752Y-97790000D01*
X133530971Y-98000330D01*
X133206115Y-98486511D01*
X133092041Y-99060000D01*
X133206115Y-99633489D01*
X133530971Y-100119670D01*
X133845752Y-100330000D01*
X133530971Y-100540330D01*
X133206115Y-101026511D01*
X133092041Y-101600000D01*
X133206115Y-102173489D01*
X133530971Y-102659670D01*
X133845752Y-102870000D01*
X133530971Y-103080330D01*
X133206115Y-103566511D01*
X133092041Y-104140000D01*
X133206115Y-104713489D01*
X133530971Y-105199670D01*
X133845752Y-105410000D01*
X133530971Y-105620330D01*
X133206115Y-106106511D01*
X133092041Y-106680000D01*
X133206115Y-107253489D01*
X133530971Y-107739670D01*
X133845752Y-107950000D01*
X133530971Y-108160330D01*
X133206115Y-108646511D01*
X133092041Y-109220000D01*
X133206115Y-109793489D01*
X133530971Y-110279670D01*
X133854228Y-110495664D01*
X133731510Y-110553179D01*
X133337312Y-110985053D01*
X133165042Y-111400974D01*
X133286183Y-111633000D01*
X134493000Y-111633000D01*
X134493000Y-111613000D01*
X134747000Y-111613000D01*
X134747000Y-111633000D01*
X134767000Y-111633000D01*
X134767000Y-111887000D01*
X134747000Y-111887000D01*
X134747000Y-111907000D01*
X134493000Y-111907000D01*
X134493000Y-111887000D01*
X133286183Y-111887000D01*
X133165042Y-112119026D01*
X133337312Y-112534947D01*
X133731510Y-112966821D01*
X133854228Y-113024336D01*
X133530971Y-113240330D01*
X133206115Y-113726511D01*
X133092041Y-114300000D01*
X133206115Y-114873489D01*
X133530971Y-115359670D01*
X133845752Y-115570000D01*
X133530971Y-115780330D01*
X133206115Y-116266511D01*
X133092041Y-116840000D01*
X133206115Y-117413489D01*
X133530971Y-117899670D01*
X133845752Y-118110000D01*
X133530971Y-118320330D01*
X133206115Y-118806511D01*
X133092041Y-119380000D01*
X133206115Y-119953489D01*
X133530971Y-120439670D01*
X133845752Y-120650000D01*
X133530971Y-120860330D01*
X133206115Y-121346511D01*
X133092041Y-121920000D01*
X133206115Y-122493489D01*
X133530971Y-122979670D01*
X133845752Y-123190000D01*
X133530971Y-123400330D01*
X133206115Y-123886511D01*
X133092041Y-124460000D01*
X133206115Y-125033489D01*
X133530971Y-125519670D01*
X133845752Y-125730000D01*
X133530971Y-125940330D01*
X133206115Y-126426511D01*
X133092041Y-127000000D01*
X133206115Y-127573489D01*
X133530971Y-128059670D01*
X133854228Y-128275664D01*
X133731510Y-128333179D01*
X133337312Y-128765053D01*
X133165042Y-129180974D01*
X133286183Y-129413000D01*
X134493000Y-129413000D01*
X134493000Y-129393000D01*
X134747000Y-129393000D01*
X134747000Y-129413000D01*
X134767000Y-129413000D01*
X134767000Y-129667000D01*
X134747000Y-129667000D01*
X134747000Y-130874469D01*
X134979027Y-130994968D01*
X135508490Y-130746821D01*
X135890008Y-130328839D01*
X136070971Y-130599670D01*
X136557152Y-130924526D01*
X137130641Y-131038600D01*
X137189359Y-131038600D01*
X137762848Y-130924526D01*
X138249029Y-130599670D01*
X138573885Y-130113489D01*
X138687959Y-129540000D01*
X138573885Y-128966511D01*
X138249029Y-128480330D01*
X137934248Y-128270000D01*
X138249029Y-128059670D01*
X138573885Y-127573489D01*
X138687959Y-127000000D01*
X138573885Y-126426511D01*
X138249029Y-125940330D01*
X137934248Y-125730000D01*
X138249029Y-125519670D01*
X138573885Y-125033489D01*
X138687959Y-124460000D01*
X138573885Y-123886511D01*
X138249029Y-123400330D01*
X137925772Y-123184336D01*
X138048490Y-123126821D01*
X138442688Y-122694947D01*
X138614958Y-122279026D01*
X138493817Y-122047000D01*
X137287000Y-122047000D01*
X137287000Y-122067000D01*
X137033000Y-122067000D01*
X137033000Y-122047000D01*
X137013000Y-122047000D01*
X137013000Y-121793000D01*
X137033000Y-121793000D01*
X137033000Y-121773000D01*
X137287000Y-121773000D01*
X137287000Y-121793000D01*
X138493817Y-121793000D01*
X138614958Y-121560974D01*
X138442688Y-121145053D01*
X138048490Y-120713179D01*
X137925772Y-120655664D01*
X138249029Y-120439670D01*
X138573885Y-119953489D01*
X138687959Y-119380000D01*
X138573885Y-118806511D01*
X138249029Y-118320330D01*
X137925772Y-118104336D01*
X138048490Y-118046821D01*
X138442688Y-117614947D01*
X138614958Y-117199026D01*
X138493817Y-116967000D01*
X137287000Y-116967000D01*
X137287000Y-116987000D01*
X137033000Y-116987000D01*
X137033000Y-116967000D01*
X137013000Y-116967000D01*
X137013000Y-116713000D01*
X137033000Y-116713000D01*
X137033000Y-116693000D01*
X137287000Y-116693000D01*
X137287000Y-116713000D01*
X138493817Y-116713000D01*
X138614958Y-116480974D01*
X138442688Y-116065053D01*
X138048490Y-115633179D01*
X137925772Y-115575664D01*
X138249029Y-115359670D01*
X138573885Y-114873489D01*
X138687959Y-114300000D01*
X138573885Y-113726511D01*
X138249029Y-113240330D01*
X137934248Y-113030000D01*
X138249029Y-112819670D01*
X138573885Y-112333489D01*
X138687959Y-111760000D01*
X138573885Y-111186511D01*
X138249029Y-110700330D01*
X137934248Y-110490000D01*
X138249029Y-110279670D01*
X138573885Y-109793489D01*
X138687959Y-109220000D01*
X138573885Y-108646511D01*
X138249029Y-108160330D01*
X137934248Y-107950000D01*
X138249029Y-107739670D01*
X138573885Y-107253489D01*
X138687959Y-106680000D01*
X138573885Y-106106511D01*
X138249029Y-105620330D01*
X137925772Y-105404336D01*
X138048490Y-105346821D01*
X138442688Y-104914947D01*
X138614958Y-104499026D01*
X138493817Y-104267000D01*
X137287000Y-104267000D01*
X137287000Y-104287000D01*
X137033000Y-104287000D01*
X137033000Y-104267000D01*
X137013000Y-104267000D01*
X137013000Y-104013000D01*
X137033000Y-104013000D01*
X137033000Y-103993000D01*
X137287000Y-103993000D01*
X137287000Y-104013000D01*
X138493817Y-104013000D01*
X138614958Y-103780974D01*
X138442688Y-103365053D01*
X138048490Y-102933179D01*
X137925772Y-102875664D01*
X138249029Y-102659670D01*
X138573885Y-102173489D01*
X138687959Y-101600000D01*
X138573885Y-101026511D01*
X138249029Y-100540330D01*
X137934248Y-100330000D01*
X138249029Y-100119670D01*
X138573885Y-99633489D01*
X138687959Y-99060000D01*
X138573885Y-98486511D01*
X138249029Y-98000330D01*
X137934248Y-97790000D01*
X138249029Y-97579670D01*
X138573885Y-97093489D01*
X138687959Y-96520000D01*
X138573885Y-95946511D01*
X138249029Y-95460330D01*
X137934248Y-95250000D01*
X138249029Y-95039670D01*
X138573885Y-94553489D01*
X138687959Y-93980000D01*
X138573885Y-93406511D01*
X138249029Y-92920330D01*
X137934248Y-92710000D01*
X138249029Y-92499670D01*
X138573885Y-92013489D01*
X138687959Y-91440000D01*
X138573885Y-90866511D01*
X138249029Y-90380330D01*
X137934248Y-90170000D01*
X138249029Y-89959670D01*
X138573885Y-89473489D01*
X138687959Y-88900000D01*
X138573885Y-88326511D01*
X138249029Y-87840330D01*
X137925772Y-87624336D01*
X138048490Y-87566821D01*
X138442688Y-87134947D01*
X138614958Y-86719026D01*
X138493817Y-86487000D01*
X137287000Y-86487000D01*
X137287000Y-86507000D01*
X137033000Y-86507000D01*
X137033000Y-86487000D01*
X137013000Y-86487000D01*
X137013000Y-86233000D01*
X137033000Y-86233000D01*
X137033000Y-86213000D01*
X137287000Y-86213000D01*
X137287000Y-86233000D01*
X138493817Y-86233000D01*
X138614958Y-86000974D01*
X138442688Y-85585053D01*
X138048490Y-85153179D01*
X137925772Y-85095664D01*
X138249029Y-84879670D01*
X138573885Y-84393489D01*
X138687959Y-83820000D01*
X138573885Y-83246511D01*
X138249029Y-82760330D01*
X137934248Y-82550000D01*
X138249029Y-82339670D01*
X138573885Y-81853489D01*
X138687959Y-81280000D01*
X138573885Y-80706511D01*
X138249029Y-80220330D01*
X137762848Y-79895474D01*
X137189359Y-79781400D01*
X137130641Y-79781400D01*
X136557152Y-79895474D01*
X136091558Y-80206574D01*
X136086762Y-80181083D01*
X135947690Y-79964959D01*
X135735490Y-79819969D01*
X135483600Y-79768960D01*
X133756400Y-79768960D01*
X133521083Y-79813238D01*
X133304959Y-79952310D01*
X133159969Y-80164510D01*
X133108960Y-80416400D01*
X133108960Y-82143600D01*
X133153238Y-82378917D01*
X133292310Y-82595041D01*
X133504510Y-82740031D01*
X133548131Y-82748864D01*
X133530971Y-82760330D01*
X133206115Y-83246511D01*
X133092041Y-83820000D01*
X125987959Y-83820000D01*
X125873885Y-83246511D01*
X125549029Y-82760330D01*
X125234248Y-82550000D01*
X125549029Y-82339670D01*
X125873885Y-81853489D01*
X125987959Y-81280000D01*
X125873885Y-80706511D01*
X125549029Y-80220330D01*
X125062848Y-79895474D01*
X124489359Y-79781400D01*
X124430641Y-79781400D01*
X123857152Y-79895474D01*
X123391558Y-80206574D01*
X123386762Y-80181083D01*
X123247690Y-79964959D01*
X123035490Y-79819969D01*
X122783600Y-79768960D01*
X121056400Y-79768960D01*
X120821083Y-79813238D01*
X120604959Y-79952310D01*
X120459969Y-80164510D01*
X120408960Y-80416400D01*
X120408960Y-82143600D01*
X120453238Y-82378917D01*
X120592310Y-82595041D01*
X120804510Y-82740031D01*
X120848131Y-82748864D01*
X120830971Y-82760330D01*
X120506115Y-83246511D01*
X120392041Y-83820000D01*
X120142000Y-83820000D01*
X120142000Y-79502000D01*
X138938000Y-79502000D01*
X138938000Y-131318000D01*
M02*
